<svg width="236" height="250" viewBox="0 0 236 250" fill="none" xmlns="http://www.w3.org/2000/svg">
<g id="undraw_game_world_re_e44j 3">
<g id="Group">
<path id="Vector" d="M100.922 234.225L96.4896 238.649L90.3683 241.809L91.0016 247.286L102.611 246.022L104.088 243.072L103.666 240.545L104.511 236.542L100.922 234.225Z" fill="#FFB6B6"/>
<path id="Vector_2" d="M91.8459 245.179L91.4834 240.532L78.9701 246.443C78.9701 246.443 78.0011 249.182 81.0186 249.603C84.036 250.024 104.089 250.024 104.089 248.971C104.089 247.918 104.637 242.525 104.637 242.525L92.4792 246.022L91.8459 245.179Z" fill="#2F2E41"/>
</g>
<g id="Group_2">
<path id="Vector_3" d="M129.519 224.661L128.576 230.846L125.523 237.012L129.287 241.048L137.886 233.162L137.324 229.913L135.482 228.127L133.785 224.404L129.519 224.661Z" fill="#FFB6B6"/>
<path id="Vector_4" d="M128.715 238.852L125.663 235.324L119.096 247.487C119.096 247.487 119.942 250.266 122.623 248.82C125.303 247.374 141.453 235.512 140.827 234.663C140.202 233.815 137.44 229.148 137.44 229.148L129.726 239.156L128.715 238.852Z" fill="#2F2E41"/>
</g>
<path id="Vector_5" d="M128.161 93.2275H108.144V81.6916C108.144 73.4029 114.887 66.6735 123.193 66.6735H128.161L128.161 93.2275Z" fill="#2F2E41"/>
<path id="Vector_6" d="M116.015 93.0679L117.784 86.0028L128.909 84.7412C128.909 84.7412 128.656 92.3109 129.415 93.5726L116.015 93.0679Z" fill="#FFB6B6"/>
<path id="Vector_7" d="M121.071 88.2736C126.796 88.2736 131.438 83.6418 131.438 77.9283C131.438 72.2147 126.796 67.583 121.071 67.583C115.346 67.583 110.705 72.2147 110.705 77.9283C110.705 83.6418 115.346 88.2736 121.071 88.2736Z" fill="#FFB6B6"/>
<path id="Vector_8" d="M106.154 135.711L98.5689 148.327L98.1897 237.524H104.858L117.405 164.602L114.118 206.74L127.697 230.854L136.799 227.826L129.415 204.848L139.908 152.743L135.736 136.468L106.154 135.711Z" fill="#2F2E41"/>
<path id="Vector_9" d="M129.415 92.311H116.015L108.43 95.8436L105.901 110.226C105.901 110.226 102.867 117.11 105.901 121.112C105.901 121.112 106.66 122.842 105.901 123.599C105.143 124.356 105.143 125.87 105.648 126.375C106.154 126.879 106.154 130.648 106.154 130.648V136.084L135.736 136.468L134.724 131.674C134.724 131.674 136.241 131.113 135.736 129.123C135.23 127.132 136.448 126.961 135.839 125.785C135.23 124.609 135.23 124.356 135.23 124.356L137.253 122.338C137.253 122.338 138.77 115.525 136.241 111.488C133.713 107.45 137.253 98.1145 137.253 98.1145L129.415 92.311Z" fill="#A00000"/>
<g id="Group_3">
<path id="Vector_10" d="M138.495 159.882L136.786 157.693C144.267 150.833 152.699 141.997 156.828 142.105C157.434 141.634 158.308 141.742 158.78 142.347C159.252 142.951 159.144 143.823 158.538 144.295C158.766 150.731 147.526 155.108 138.495 159.882Z" fill="#3F3D56"/>
<path id="Vector_11" d="M134.727 166.008C137.38 166.008 139.531 163.861 139.531 161.214C139.531 158.566 137.38 156.419 134.727 156.419C132.074 156.419 129.923 158.566 129.923 161.214C129.923 163.861 132.074 166.008 134.727 166.008Z" fill="#6C63FF"/>
</g>
<path id="Vector_12" d="M101.189 83.2803C101.698 81.7355 102.703 80.3831 103.153 78.82C103.75 76.7446 105.021 81.3488 105.145 79.1931C105.38 75.0958 111.646 64.5563 115.224 62.5318C118.801 60.5073 120.855 61.1177 124.5 63.019C124.5 63.019 126.269 63.1313 128.471 64.2164C130.674 65.3016 132.656 67.0395 133.513 69.3367C134.192 71.1577 134.116 73.1574 134.343 75.087C134.975 80.463 137.995 85.5758 137.347 90.9498C137.145 92.6265 136.506 94.3603 135.132 95.3465C133.759 96.3327 131.539 96.2254 130.635 94.7979C130.327 94.3108 130.196 93.7329 129.932 93.2206C129.667 92.7083 129.19 92.2307 128.612 92.2466C127.745 92.2706 127.303 93.4324 127.645 94.2285C127.987 95.0246 128.791 95.5052 129.546 95.9327C127.748 96.7399 125.518 96.4886 123.946 95.3016C122.374 94.1146 121.525 92.0411 121.814 90.095C122.222 87.3526 126.225 87.9202 126.697 85.188C127.04 83.199 128.246 79.871 127.917 77.8795C127.589 75.8881 126.012 78.2994 127.673 77.1487C125.845 78.0281 121.935 72.0121 120.022 71.3382C118.108 70.6644 116.486 69.2053 115.616 67.3758C113.586 70.3121 111.801 69.5147 111.074 73.0072C110.347 76.4998 111.019 84.4345 114.012 86.3844C112.814 87.2 111.859 88.3663 111.297 89.7003C110.979 90.456 110.772 91.2829 110.244 91.9106C109.235 93.1093 107.371 93.1823 105.886 92.6782C104.044 92.0532 102.469 90.6806 101.601 88.9432C100.732 87.2058 100.581 85.1246 101.189 83.2803Z" fill="#2F2E41"/>
<path id="Vector_13" d="M110.223 70.8222C110.223 70.8222 105.626 79.4137 108.935 82.7485C108.935 82.7485 123.876 81.8038 129.111 84.3422C129.111 84.3422 132.639 82.2874 131.171 75.8728C129.703 69.4582 118.901 69.0224 110.223 70.8222Z" fill="#E6E6E6"/>
<path id="Vector_14" d="M110.835 71.4968L108.525 80.0034C108.525 80.0034 116.491 78.5647 128.276 82.1706C128.276 82.1706 131.546 78.967 129.767 74.4676C127.989 69.9681 110.835 71.4968 110.835 71.4968Z" fill="#6C63FF"/>
<path id="Vector_15" d="M129.111 84.3424C129.111 84.3424 132.761 84.8205 133.001 82.9991C133.24 81.1778 131.746 76.2978 131.171 75.873C130.596 75.4482 131.49 81.4379 129.111 84.3424Z" fill="#3F3D56"/>
<path id="Vector_16" d="M81.2358 149.072C82.7493 149.904 85.0376 148.654 86.3476 146.28C86.884 145.339 87.1867 144.283 87.2304 143.202L88.6812 140.493L88.7317 140.509L97.5971 129.018C99.6584 126.347 100.424 122.863 99.5333 119.611C99.0037 117.676 98.027 116.214 96.2319 116.98C93.2532 118.252 88.7697 128.804 86.385 134.916L83.0033 140.878C82.1101 141.494 81.3776 142.314 80.8671 143.269C79.5572 145.643 79.7224 148.241 81.2358 149.072Z" fill="#FFB6B6"/>
<path id="Vector_17" d="M112.014 95.5111C112.014 95.5111 103.777 92.1967 100.678 99.6938C97.5797 107.191 94.3492 117.697 94.3492 117.697L99.0675 125.33L107.083 113.268L112.014 95.5111Z" fill="#A00000"/>
<g id="Group_4">
<path id="Vector_18" d="M73.598 144.22V141.444C83.7241 140.623 95.8176 138.825 99.008 141.444C99.776 141.444 100.399 142.065 100.399 142.832C100.399 143.598 99.776 144.22 99.008 144.22C95.223 149.436 83.6617 145.994 73.598 144.22Z" fill="#3F3D56"/>
<path id="Vector_19" d="M69.8055 147.752C72.4586 147.752 74.6093 145.606 74.6093 142.958C74.6093 140.31 72.4586 138.164 69.8055 138.164C67.1524 138.164 65.0016 140.31 65.0016 142.958C65.0016 145.606 67.1524 147.752 69.8055 147.752Z" fill="#6C63FF"/>
</g>
<path id="Vector_20" d="M147.772 158.204C146.081 158.556 144.261 156.692 143.706 154.038C143.47 152.982 143.491 151.884 143.767 150.837L143.176 147.822L143.123 147.823L138.026 134.243C136.84 131.085 137.133 127.531 138.94 124.682C140.015 122.987 141.379 121.875 142.869 123.134C145.343 125.222 146.528 136.622 147.011 143.163L148.491 149.853C149.164 150.703 149.623 151.701 149.83 152.764C150.385 155.417 149.464 157.852 147.772 158.204Z" fill="#FFB6B6"/>
<path id="Vector_21" d="M134.092 97.9881C134.092 97.9881 142.942 97.2311 143.7 105.306C144.459 113.38 144.459 124.37 144.459 124.37L137.704 130.286L133.587 116.408L134.092 97.9881Z" fill="#A00000"/>
</g>
</svg>
